# xmcd
#
# Track frame offsets: 
#        150
#        20689
#        41495
#        59216
#        75200
#        92981
#        111235
#        132289
#        154525
#        170122
#        189522
#        206372
#        228151
#        244298
#        262615
#        284864
#
# Disc length: 4055 seconds
#
# Revision: 0
# Processed by: cddbd v1.4PL0 Copyright (c) Steve Scherf et al.
# Submitted via: ExactAudioCopy v0.90a11
#
DISCID=de0fd510
DTITLE=ZONE - complete singles
DYEAR=1900
DGENRE=
TTITLE0=believe in love
TTITLE1=morning glory
TTITLE2=¹²ÇVÇÚÇ¬ÇÚ
TTITLE3=GOOD DAYS
TTITLE4=fortune
TTITLE5=¤j¼ÉµoNO.1
TTITLE6=ÇÝÇ~Ç«?ÇâÇ|?ÇÜ¤@Çð~¦æ°ÊÇyÆðÆùÇB~
TTITLE7=secret base
TTITLE8=·s?¹²ÇVÇÚÇ¬ÇÚ
TTITLE9=¥@¬ÉÇUÇbÇzÇU¤ù¶¨ÆñÇp
TTITLE10=ÇØÇ«ÇpÇVÇ±Çï¤i
TTITLE11=believe in love (inst)
TTITLE12=GOOD DAYS (Backing Tracks)
TTITLE13=¤j¼ÉµoNO.1 (Backing Tracks)
TTITLE14=secret base (Backing Tracks)
TTITLE15=¥@¬ÉÇUÇbÇzÇU¤ù¶¨ÆñÇp (Backing Tracks)
EXTD=
EXTT0=
EXTT1=
EXTT2=
EXTT3=
EXTT4=
EXTT5=
EXTT6=
EXTT7=
EXTT8=
EXTT9=
EXTT10=
EXTT11=
EXTT12=
EXTT13=
EXTT14=
EXTT15=
PLAYORDER=
